<?xml version="1.0" standalone="no"?>
<!DOCTYPE svg PUBLIC "-//W3C//DTD SVG 20010904//EN"
 "http://www.w3.org/TR/2001/REC-SVG-20010904/DTD/svg10.dtd">
<svg version="1.0" xmlns="http://www.w3.org/2000/svg"
 width="500.000000pt" height="500.000000pt" viewBox="0 0 500.000000 500.000000"
 preserveAspectRatio="xMidYMid meet">

<g transform="translate(0.000000,500.000000) scale(0.100000,-0.100000)"
fill="#000000" stroke="none">
<path d="M2176 3674 c-43 -8 -85 -19 -95 -25 -14 -9 -13 -10 3 -4 11 3 54 11
95 17 42 6 80 15 86 20 11 10 10 10 -89 -8z"/>
<path d="M2307 3683 c18 -2 50 -2 70 0 21 2 7 4 -32 4 -38 0 -55 -2 -38 -4z"/>
<path d="M2440 3680 c14 -4 39 -8 55 -8 l30 0 -30 8 c-16 4 -41 8 -55 8 l-25
0 25 -8z"/>
<path d="M2535 3672 c5 -6 90 -30 195 -56 14 -4 5 2 -20 12 -48 21 -186 55
-175 44z"/>
<path d="M2018 3638 c-21 -6 -38 -14 -38 -18 0 -10 59 8 75 21 5 5 7 9 5 8 -3
-1 -22 -6 -42 -11z"/>
<path d="M1882 3580 c-78 -37 -202 -115 -202 -126 0 -7 17 3 56 32 17 13 77
46 133 74 86 44 112 60 98 60 -2 0 -40 -18 -85 -40z"/>
<path d="M2766 3602 c12 -11 64 -33 64 -27 0 5 -56 35 -67 35 -4 0 -3 -4 3 -8z"/>
<path d="M2841 3567 c14 -11 119 -66 119 -63 0 7 -100 66 -112 66 -6 0 -9 -1
-7 -3z"/>
<path d="M1835 3501 c-88 -22 -151 -77 -162 -144 -4 -27 -1 -39 17 -57 19 -19
30 -22 69 -17 25 4 55 9 66 12 17 5 23 -3 42 -55 l22 -60 -25 6 c-34 9 -41
-18 -14 -55 l21 -30 -25 -7 c-35 -9 -39 -29 -10 -63 25 -30 25 -32 14 -109
-14 -94 -3 -170 36 -250 19 -40 23 -57 15 -65 -15 -15 -14 -38 4 -51 22 -16 3
-118 -30 -166 -30 -43 -32 -66 -5 -73 31 -8 10 -59 -55 -133 -52 -59 -135
-134 -147 -134 -3 0 -9 12 -12 26 -10 38 -31 24 -32 -22 -1 -32 -1 -34 3 -6 6
45 19 40 33 -15 10 -39 14 -44 19 -26 6 20 128 140 135 132 1 -2 10 -25 20
-50 22 -60 70 -133 121 -184 55 -55 151 -119 165 -110 7 4 -11 22 -48 46 -81
53 -164 145 -200 221 -43 93 -45 108 -16 141 13 16 29 25 34 22 6 -4 10 6 10
23 0 16 3 44 6 62 6 30 5 32 -15 25 -27 -8 -28 13 -2 47 21 26 35 74 46 151 6
47 6 49 -16 42 -23 -8 -23 -7 -6 19 16 24 16 28 2 57 -15 29 -15 32 2 45 10 7
34 16 53 19 185 29 269 63 335 138 71 78 115 228 115 389 0 71 2 79 18 74 9
-2 36 -8 60 -11 23 -4 42 -10 42 -15 0 -4 -7 -27 -15 -51 -49 -138 -79 -391
-54 -456 13 -36 59 -85 129 -137 96 -72 140 -109 140 -119 0 -5 -8 -16 -17
-23 -15 -10 -16 -15 -5 -25 17 -18 15 -32 -3 -25 -10 4 -15 -1 -15 -14 0 -22
-10 -26 -26 -10 -16 16 -45 -22 -46 -58 -1 -17 5 -44 12 -61 14 -34 7 -65 -13
-58 -6 2 -22 -13 -34 -34 -18 -33 -20 -43 -11 -79 12 -48 8 -56 -22 -40 -21
11 -21 11 -14 -72 6 -77 6 -82 -10 -69 -20 17 -17 21 -45 -64 -12 -38 -25 -76
-28 -82 -2 -7 0 -13 5 -13 10 0 47 80 54 115 2 12 11 20 23 20 25 0 31 36 17
100 -9 42 -8 44 12 42 19 -2 21 3 21 48 1 56 21 115 40 115 29 0 36 26 20 71
-8 24 -15 54 -15 65 0 26 25 50 35 34 11 -17 35 -11 35 9 0 10 9 21 21 24 18
5 19 9 9 27 -10 18 -8 24 15 42 89 70 155 203 155 313 0 33 6 47 30 70 30 29
39 60 19 67 -6 2 6 21 26 42 40 43 41 62 1 59 -18 -1 -24 2 -20 10 7 12 61 84
75 101 5 5 24 -1 46 -16 59 -38 71 -40 88 -15 20 31 10 85 -29 149 -41 69 -96
98 -182 98 -55 0 -63 2 -57 17 10 25 -52 10 -103 -26 l-42 -29 6 40 c5 38 4
40 -15 29 -22 -11 -77 -92 -88 -128 -6 -21 -8 -22 -38 -9 -100 41 -295 64
-383 44 l-31 -7 -6 51 c-11 89 -57 130 -57 50 l0 -36 -17 24 c-27 41 -76 90
-90 90 -7 0 -13 -7 -13 -16 0 -12 -5 -14 -17 -9 -30 13 -117 35 -133 34 -8 -1
-28 -4 -45 -8z m386 -451 c22 -12 49 -61 49 -87 -1 -13 -5 -11 -16 9 -28 52
-101 49 -134 -5 -30 -49 -26 -102 10 -139 l31 -30 -28 6 c-15 4 -39 18 -53 32
-21 20 -25 34 -25 82 0 41 5 64 20 84 40 52 100 72 146 48z m-11 -74 c0 -8 -5
-18 -11 -22 -14 -8 -33 11 -25 25 10 16 36 13 36 -3z m451 -2 c41 -21 72 -91
63 -140 -13 -70 -94 -132 -140 -106 -13 7 -11 10 14 15 62 12 86 129 37 181
-30 33 -55 33 -94 0 -34 -28 -41 -22 -13 13 18 23 68 53 90 53 7 0 27 -7 43
-16z m-63 -71 c-2 -10 -10 -18 -18 -18 -8 0 -16 8 -18 18 -2 12 3 17 18 17 15
0 20 -5 18 -17z"/>
<path d="M3000 3470 c72 -66 185 -178 195 -192 51 -76 106 -149 101 -135 -23
68 -208 279 -296 336 l-35 23 35 -32z"/>
<path d="M1580 3365 c-36 -36 -61 -65 -57 -65 10 0 130 121 125 126 -2 2 -33
-26 -68 -61z"/>
<path d="M1467 3228 c-45 -64 -71 -108 -64 -108 2 0 23 28 46 63 23 34 49 72
57 85 9 12 14 22 11 22 -3 0 -26 -28 -50 -62z"/>
<path d="M3337 3043 c20 -43 47 -125 60 -183 35 -148 44 -177 37 -120 -8 77
-36 182 -66 255 -17 39 -35 82 -41 98 -6 15 -15 27 -19 27 -3 0 9 -35 29 -77z"/>
<path d="M1382 3090 c-7 -11 -12 -25 -12 -32 1 -7 8 0 16 15 18 33 14 46 -4
17z"/>
<path d="M1352 3023 c-13 -24 -47 -136 -64 -203 -20 -84 -17 -357 5 -447 27
-111 74 -235 119 -310 44 -73 126 -181 155 -204 10 -8 5 2 -10 21 -89 112
-124 165 -168 255 -123 253 -141 548 -50 819 27 83 32 105 13 69z"/>
<path d="M2235 2709 c-28 -25 -35 -38 -35 -67 0 -45 36 -93 88 -116 37 -17 40
-20 30 -42 -23 -50 -108 -50 -173 1 -45 34 -67 76 -69 134 -1 38 2 46 17 45
26 -3 20 13 -8 20 -28 7 -65 -8 -65 -26 0 -9 3 -9 12 0 19 19 29 14 22 -13 -3
-14 1 -47 9 -73 9 -26 20 -73 26 -105 22 -124 91 -204 182 -214 37 -4 53 1
101 30 l56 35 34 -35 c57 -58 106 -53 135 14 16 40 11 73 -17 114 -19 26 -19
27 0 44 11 10 27 37 36 61 18 47 23 51 43 32 11 -11 13 -10 9 2 -7 23 -57 45
-71 31 -8 -8 -8 -11 1 -11 33 0 -19 -92 -73 -128 -60 -42 -150 -29 -174 25
-16 35 -14 43 14 43 71 0 135 57 135 119 0 73 -57 111 -164 111 -59 0 -69 -3
-101 -31z m60 -304 c99 -13 110 -16 91 -27 -41 -23 -149 -6 -188 29 -28 25
-21 33 15 18 17 -7 55 -16 82 -20z"/>
<path d="M3427 2558 c-3 -73 -12 -157 -21 -185 -8 -29 -11 -53 -6 -53 14 0 32
115 37 243 3 70 3 127 1 127 -3 0 -8 -60 -11 -132z"/>
<path d="M3381 2279 c-5 -13 -16 -41 -24 -61 -9 -21 -12 -38 -7 -38 5 0 13 12
16 28 4 15 13 40 21 55 8 16 12 31 9 34 -3 3 -10 -5 -15 -18z"/>
<path d="M2185 2205 c54 -45 138 -42 181 6 18 20 18 20 -27 0 -56 -26 -85 -26
-134 -1 -51 26 -57 25 -20 -5z"/>
<path d="M3312 2114 c-42 -83 -99 -164 -160 -228 -60 -63 -71 -88 -13 -30 79
79 223 295 208 311 -3 3 -19 -21 -35 -53z"/>
<path d="M3057 2076 c-9 -19 -19 -59 -22 -88 l-5 -53 15 64 c23 100 38 102 33
4 -2 -45 1 -78 5 -74 12 12 11 161 0 172 -5 5 -16 -6 -26 -25z"/>
<path d="M1621 1985 c0 -17 8 -55 18 -85 14 -40 17 -60 9 -73 -9 -18 -11 -18
-34 4 -13 12 -24 18 -24 11 0 -6 12 -20 26 -31 14 -11 24 -27 22 -36 -2 -13
-12 -9 -45 20 -57 49 -54 37 5 -20 26 -26 39 -44 30 -41 -37 11 -16 -13 23
-28 51 -20 57 -17 24 14 -28 26 -34 56 -10 46 14 -5 14 -2 0 24 -10 19 -11 31
-5 35 6 4 9 12 8 18 -2 7 11 30 27 52 30 41 38 49 65 65 8 4 11 12 7 16 -4 4
-25 -9 -46 -31 l-40 -38 -4 39 -4 39 -1 -42 c-3 -78 -23 -56 -46 52 -2 13 -4
9 -5 -10z"/>
<path d="M2940 1965 c0 -23 26 -81 40 -90 6 -4 2 12 -10 35 -12 23 -19 44 -16
48 8 7 63 -59 85 -102 25 -49 11 -65 -23 -26 -14 17 -26 28 -26 23 0 -5 13
-22 30 -38 23 -22 27 -32 19 -42 -16 -19 -28 -16 -39 10 l-9 22 0 -22 c-1 -12
3 -24 8 -27 11 -7 3 -46 -9 -46 -5 0 -15 19 -24 43 -25 71 -26 73 -20 32 10
-67 9 -78 -3 -82 -8 -3 -13 6 -14 24 l-1 28 -8 -25 c-4 -14 -8 -33 -9 -43 -1
-17 2 -17 30 4 26 18 33 19 40 8 6 -9 4 -18 -6 -25 -8 -6 -13 -13 -11 -15 4
-4 -28 -4 -69 0 -8 0 -15 9 -15 19 -1 15 -2 14 -12 -3 -18 -31 -39 -43 -91
-50 -26 -4 -45 -11 -42 -15 8 -12 -11 -21 -46 -22 l-30 -1 28 -23 c24 -20 25
-23 9 -24 -27 0 -103 38 -110 55 -6 18 16 20 44 5 16 -9 18 -8 13 6 -5 14 -1
16 29 10 38 -7 60 3 155 72 36 27 47 31 54 20 6 -9 9 -3 9 17 0 17 3 40 6 53
6 21 7 21 20 5 13 -16 13 -16 5 7 -5 14 -9 28 -10 33 0 4 -4 8 -8 10 -4 1 -12
-22 -16 -51 -5 -29 -13 -50 -18 -46 -5 3 -21 -8 -34 -25 -14 -16 -44 -39 -68
-50 -45 -22 -97 -34 -97 -23 0 15 93 67 154 87 10 3 17 8 14 10 -11 11 -119
-39 -159 -73 -31 -27 -51 -36 -80 -36 -30 -1 -38 2 -34 12 4 10 0 12 -11 8 -8
-3 -19 -6 -24 -6 -4 0 -10 -9 -13 -20 -3 -13 0 -20 9 -20 8 0 14 5 14 11 0 6
15 -2 33 -18 l33 -28 -26 -11 c-19 -8 -35 -8 -64 3 -46 16 -49 16 -41 3 3 -5
13 -10 21 -10 8 0 33 -9 55 -20 33 -15 40 -16 35 -4 -9 23 17 27 78 9 64 -19
86 -13 60 17 -16 16 -16 21 -4 28 23 15 39 12 63 -11 40 -38 137 -74 137 -51
0 13 -56 61 -87 75 -29 13 -29 22 0 25 34 5 39 5 92 -1 28 -2 43 -3 33 0 -31
8 -27 28 6 28 22 0 31 5 30 16 -1 10 18 25 52 40 30 13 54 27 54 31 0 4 -8 4
-17 1 -16 -6 -17 -5 -3 12 8 10 37 36 63 57 27 21 45 38 41 38 -4 0 -29 -18
-55 -40 -45 -38 -69 -42 -48 -10 12 20 11 33 -1 25 -15 -9 -24 44 -11 71 6 13
7 24 2 24 -5 0 -11 -6 -14 -12 -3 -8 -9 -3 -15 12 -6 14 -11 18 -11 10 -1 -9
-15 0 -39 23 -41 41 -52 45 -52 22z m125 -204 c3 -5 1 -12 -5 -16 -6 -4 -7
-11 -4 -17 4 -6 2 -8 -4 -4 -6 3 -17 -3 -25 -14 -16 -22 -29 -17 -20 8 8 21
34 52 44 52 4 0 10 -4 14 -9z m-210 -196 c32 -20 55 -39 51 -42 -8 -8 -110 43
-131 67 -17 19 -17 19 3 15 12 -2 46 -20 77 -40z"/>
<path d="M1749 1924 c-5 -15 -12 -31 -16 -37 -3 -6 -1 -7 4 -4 11 7 36 67 27
67 -2 0 -9 -12 -15 -26z"/>
<path d="M1696 1832 l-29 -37 34 32 c18 18 31 35 28 37 -3 3 -18 -12 -33 -32z"/>
<path d="M1480 1855 c0 -4 6 -19 14 -34 14 -26 86 -90 86 -75 0 3 -11 15 -25
25 -13 11 -34 34 -46 51 -22 30 -22 30 -1 19 29 -16 41 -13 18 4 -20 15 -46
20 -46 10z"/>
<path d="M1738 1836 c-9 -13 -20 -35 -24 -50 -3 -14 -10 -26 -15 -26 -5 0 -9
-4 -9 -10 0 -5 7 -10 15 -10 8 0 14 3 14 8 -4 18 15 73 28 84 14 11 15 7 12
-29 -5 -48 6 -49 14 -1 8 59 -7 73 -35 34z"/>
<path d="M2940 1843 c0 -9 3 -13 7 -10 3 4 13 1 21 -6 13 -10 14 -9 3 11 -14
26 -31 29 -31 5z"/>
<path d="M3204 1843 c5 -11 -9 -31 -44 -65 -29 -27 -41 -44 -28 -37 43 23 105
99 91 112 -13 13 -25 7 -19 -10z"/>
<path d="M1798 1818 c-3 -7 1 -18 7 -25 13 -12 29 -122 20 -131 -14 -14 -26
21 -26 74 0 46 -3 55 -11 41 -5 -11 -8 -32 -6 -48 5 -31 1 -34 -21 -20 -8 5
-11 16 -7 27 6 18 5 17 -9 0 -8 -11 -15 -24 -15 -30 0 -5 -7 -1 -15 10 -14 18
-15 17 -11 -11 2 -16 5 -32 5 -34 1 -2 9 3 19 12 23 21 56 12 71 -19 11 -24
11 -24 -22 -10 -24 9 -54 12 -105 7 -75 -7 -96 -16 -72 -31 21 -13 30 -12 28
3 -3 12 86 19 124 9 23 -6 23 -19 1 -26 -22 -6 33 0 65 7 12 3 27 9 34 13 7 4
8 3 4 -4 -4 -8 0 -12 12 -12 30 0 35 -13 10 -33 -20 -16 -17 -15 20 3 46 23
56 13 17 -18 -43 -34 -27 -35 20 -1 44 32 50 49 17 47 -9 -1 -38 8 -64 20 -34
15 -48 27 -48 41 0 10 -3 27 -6 35 -4 12 -2 15 9 10 8 -3 18 -1 22 5 3 6 -2
11 -13 11 -16 0 -21 9 -26 45 -7 43 -20 58 -28 33z"/>
<path d="M2040 1798 c1 -29 39 -96 73 -128 67 -62 -12 -63 -95 -1 -40 31 -138
78 -138 66 0 -2 28 -17 63 -33 71 -34 105 -58 96 -67 -4 -3 -25 1 -48 8 -47
17 -49 15 -20 -14 17 -17 28 -19 60 -14 42 7 51 -3 19 -22 -13 -9 -27 -10 -45
-3 -16 6 -25 6 -25 0 0 -6 10 -10 23 -10 21 -1 21 -1 -6 -23 -30 -25 -27 -37
10 -37 26 0 32 20 6 20 -26 1 29 41 86 63 l46 17 -37 -35 c-35 -33 -54 -60
-25 -37 7 6 21 6 36 1 23 -9 24 -10 5 -24 -27 -20 -14 -18 40 5 50 23 60 34
21 24 -14 -3 -37 -3 -51 0 l-27 7 24 25 c16 17 30 23 46 20 20 -6 21 -4 13 22
-11 41 -55 108 -96 148 -37 36 -54 42 -54 22z m57 -40 c29 -33 85 -118 78
-118 -14 0 -65 42 -83 68 -24 33 -37 72 -24 72 4 0 18 -10 29 -22z"/>
<path d="M2652 1801 c-7 -4 -10 -15 -7 -24 8 -19 -8 -52 -43 -89 -14 -15 -23
-31 -20 -34 8 -7 66 71 79 105 13 32 8 53 -9 42z"/>
<path d="M2588 1743 c-8 -10 -22 -31 -32 -48 l-17 -30 20 25 c32 38 36 44 45
58 11 18 1 15 -16 -5z"/>
<path d="M2216 1703 c4 -21 13 -53 20 -72 18 -43 18 -44 -6 -31 -25 13 -26 2
-2 -16 10 -8 12 -13 5 -14 -30 0 -10 -15 23 -17 41 -2 54 -10 35 -22 -8 -5 28
-9 84 -10 147 -3 161 -14 215 -176 45 -135 52 -149 70 -143 7 2 34 64 60 138
46 131 48 135 76 135 l29 0 3 -123 c2 -117 2 -124 -18 -129 -50 -13 -11 -23
89 -23 l109 0 4 35 c5 40 -12 47 -27 13 -8 -19 -19 -24 -62 -26 l-53 -3 0 65
0 66 50 0 c28 0 50 5 50 10 0 6 -22 10 -50 10 l-50 0 0 56 0 55 48 -3 c38 -2
49 -7 57 -25 14 -33 25 -28 25 12 l0 35 -150 0 c-93 0 -150 -4 -150 -10 0 -5
7 -10 15 -10 22 0 19 -26 -18 -132 l-34 -96 -31 97 c-38 114 -39 131 -12 131
11 0 20 3 20 8 0 4 -9 13 -20 20 -14 9 -20 9 -20 1 0 -16 -83 -4 -115 17 -31
20 -32 38 -2 59 l22 17 -22 -7 c-28 -8 -27 -12 -3 53 23 60 26 96 8 89 -8 -2
-12 -17 -10 -33 1 -17 -3 -44 -10 -60 -16 -38 -67 -99 -75 -90 -8 7 57 136 68
136 5 0 9 6 9 13 -1 23 -50 -48 -76 -110 -15 -35 -33 -63 -40 -63 -7 0 -20 22
-29 49 -9 27 -23 55 -32 63 -12 9 -10 2 6 -29 27 -54 27 -67 0 -51 -25 16 -69
99 -69 130 1 22 2 22 25 -7 33 -40 32 -23 -1 21 -34 44 -47 43 -38 -3z m229
-163 c-3 -5 -18 -10 -33 -10 -21 0 -24 2 -12 10 20 13 53 13 45 0z"/>
<path d="M1880 1697 c0 -2 14 -13 30 -25 17 -13 30 -19 30 -14 0 4 -13 16 -30
25 -16 10 -30 16 -30 14z"/>
<path d="M3018 1653 c6 -2 18 -2 25 0 6 3 1 5 -13 5 -14 0 -19 -2 -12 -5z"/>
<path d="M3073 1654 c32 -10 18 -22 -35 -32 -35 -6 -43 -10 -24 -11 40 -1 107
20 103 33 -2 6 -17 12 -33 13 -16 1 -21 -1 -11 -3z"/>
<path d="M1646 1619 c3 -5 24 -9 46 -9 51 0 47 5 -10 13 -24 3 -40 1 -36 -4z"/>
<path d="M1800 1535 c-7 -8 -10 -18 -6 -22 8 -9 86 16 86 27 0 5 -11 4 -26 -2
-20 -9 -27 -9 -33 1 -6 9 -11 8 -21 -4z"/>
<path d="M2045 1540 c-3 -5 -1 -10 4 -10 6 0 11 5 11 10 0 6 -2 10 -4 10 -3 0
-8 -4 -11 -10z"/>
<path d="M2245 1540 c-3 -6 -23 -17 -42 -25 -20 -9 -34 -18 -30 -21 3 -3 20 3
39 12 18 10 39 17 46 16 6 -2 12 2 12 7 0 15 -18 23 -25 11z"/>
<path d="M2092 1498 c6 -18 48 -22 62 -8 8 10 7 11 -4 8 -8 -3 -26 -1 -38 4
-18 6 -23 5 -20 -4z"/>
<path d="M1565 1475 c-48 -47 -22 -104 65 -148 35 -17 46 -28 48 -50 5 -37
-13 -57 -52 -57 -36 0 -56 15 -56 42 0 10 -7 18 -15 18 -10 0 -15 -10 -15 -30
0 -36 23 -50 85 -50 56 0 95 32 95 80 0 36 -24 63 -85 91 -71 33 -75 100 -6
107 26 3 33 -1 41 -22 11 -29 28 -34 37 -11 10 28 -26 55 -74 55 -33 0 -50 -6
-68 -25z"/>
<path d="M1830 1438 c-62 -172 -83 -218 -96 -218 -8 0 -14 -4 -14 -10 0 -5 23
-10 50 -10 28 0 50 5 50 10 0 6 -7 10 -15 10 -16 0 -19 20 -9 58 6 20 13 22
64 22 51 0 58 -2 64 -22 10 -38 7 -58 -9 -58 -8 0 -15 -4 -15 -10 0 -6 62 -10
165 -10 l165 0 0 45 c0 53 -12 59 -25 13 -9 -31 -13 -33 -63 -36 l-53 -3 2
130 c0 71 -2 134 -6 140 -8 14 -75 14 -75 1 0 -5 6 -10 14 -10 8 0 17 -7 20
-16 9 -24 7 -217 -3 -232 -4 -8 -19 -12 -32 -10 -21 3 -30 21 -74 141 -58 162
-70 170 -105 75z m57 -58 l22 -60 -48 0 -48 0 21 60 c12 33 23 60 26 60 3 0
15 -27 27 -60z"/>
<path d="M2295 1467 c-22 -22 -35 -47 -40 -75 -11 -67 3 -122 40 -159 28 -28
40 -33 79 -33 91 0 136 50 136 150 0 100 -45 150 -136 150 -39 0 -51 -5 -79
-33z m149 -20 c30 -41 30 -153 0 -194 -35 -47 -103 -44 -129 7 -30 59 -13 197
27 214 33 13 81 0 102 -27z"/>
<path d="M3020 1465 c0 -40 11 -45 25 -12 7 15 20 23 43 25 l33 3 -3 -128 c-3
-124 -4 -128 -25 -131 -49 -7 -20 -22 42 -22 63 0 86 12 45 23 -19 5 -20 14
-20 131 l0 126 30 0 c23 0 33 -6 40 -25 14 -36 30 -31 30 10 l0 35 -120 0
-120 0 0 -35z"/>
</g>
</svg>
